<svg width="50" height="50" viewBox="0 0 50 50" fill="none" xmlns="http://www.w3.org/2000/svg">
<circle cx="25" cy="25" r="25" fill="#C75E90"/>
<path d="M37.1242 34.7825V31.2824C37.1384 30.7102 36.9415 30.1527 36.5707 29.7161C35.5252 28.4846 31.9396 27.6968 30.5182 27.9994C29.4103 28.2352 28.6351 29.3477 27.8773 30.104C24.9506 28.4431 22.5273 26.0247 20.8632 23.1038C21.621 22.3474 22.7357 21.5738 22.972 20.468C23.2746 19.0517 22.488 15.4889 21.265 14.4393C20.8349 14.07 20.2849 13.8695 19.7175 13.8751H16.2105C14.8742 13.8764 13.7625 15.0749 13.8841 16.4185C13.875 27.9994 22.9167 37.125 34.5758 37.1159C35.9266 37.2377 37.1297 36.1205 37.1242 34.7825Z" stroke="white" stroke-width="1.5" stroke-linecap="round" stroke-linejoin="round"/>
</svg>
