<svg width="50" height="50" viewBox="0 0 50 50" fill="none" xmlns="http://www.w3.org/2000/svg">
<circle cx="25" cy="25" r="25" fill="#C75E90"/>
<path d="M14.1161 16.6161C14.3423 16.3899 14.6548 16.25 15 16.25H35C35.3452 16.25 35.6577 16.3899 35.8839 16.6161M14.1161 16.6161C13.8899 16.8423 13.75 17.1548 13.75 17.5V32.5C13.75 33.1904 14.3096 33.75 15 33.75H35C35.6904 33.75 36.25 33.1904 36.25 32.5V17.5C36.25 17.1548 36.1101 16.8423 35.8839 16.6161M14.1161 16.6161L23.2322 25.7322C24.2085 26.7085 25.7915 26.7085 26.7678 25.7322L35.8839 16.6161" stroke="white" stroke-width="1.5" stroke-linecap="round" stroke-linejoin="round"/>
</svg>
