<svg width="354" height="108" viewBox="0 0 354 108" fill="none" xmlns="http://www.w3.org/2000/svg">
<path d="M54 0C24.1754 0 0 24.1754 0 54C0 83.8246 24.1754 108 54 108C83.8246 108 108 83.8246 108 54C108 24.1754 83.8246 0 54 0ZM86.265 39.2383C85.7458 39.5862 81.9658 42.1563 80.4912 45.5054C80.4912 45.5054 76.7942 55.6979 69.956 66.4356C68.4554 71.2852 76.1348 84.9721 76.1348 84.9721H76.0777C77.3758 84.9721 78.4142 86.0417 78.4142 87.3087C78.4142 88.5756 77.3446 89.6452 76.0777 89.6452H73.2479C73.1025 89.6452 72.9883 89.5881 72.8429 89.5569C72.8117 89.5258 72.7858 89.5258 72.7546 89.5258C71.9446 89.3544 71.3112 88.7729 71.0515 87.994C71.0515 87.9629 71.0204 87.9629 71.0204 87.9369C70.0702 85.86 60.5112 71.2229 60.5112 71.2229C58.2006 66.9496 53.7248 64.2963 48.8752 64.2963C46.7983 64.2963 44.8356 64.7585 42.9871 65.6827L43.8231 67.3546C45.4119 66.5758 47.0838 66.1708 48.8752 66.1708C52.946 66.1708 56.6429 68.336 58.6887 71.8304C59.1819 72.926 59.4675 74.1669 59.4675 75.4702L56.726 84.5048H62.3856C63.7979 84.5048 64.9558 85.6575 64.9558 87.075C64.9558 88.4925 63.8031 89.6452 62.3856 89.6452H36.6058C31.0915 89.6452 26.4133 87.6825 23.0954 83.9596C20.1773 80.6677 18.5625 76.2802 18.5625 71.6019C18.5625 67.3598 19.1388 63.1437 19.6321 59.4208C20.2396 55.0021 20.9042 48.1638 19.8035 46.8917C19.601 46.6633 19.196 46.5438 18.5625 46.5438C17.1502 46.5438 15.9923 45.3912 15.9923 43.9737C15.9923 42.5562 17.145 41.4035 18.5625 41.4035C20.7277 41.4035 22.4619 42.1252 23.6717 43.5115C26.3302 46.5438 25.6344 53.5846 24.7413 60.1425C24.2481 63.72 23.7288 67.7336 23.7029 71.659C23.6458 76.6229 27.4569 79.8006 28.1787 80.2887V71.4825C28.1787 50.8431 43.0754 47.0008 52.0529 43.2779L64.9558 37.3587C64.9558 37.3587 68.2477 28.2358 70.0962 26.216C76.6229 19.17 83.6065 18.2458 83.6065 18.2458C82.5369 21.9687 80.7508 25.8681 81.4985 24.7985C81.4985 24.7985 85.1383 26.8183 86.2338 28.2929C87.101 29.4456 87.7344 33.2308 87.7344 33.2308C88.1083 33.8642 89.209 35.3077 89.1467 35.9723C89.0014 37.4729 87.4125 38.4542 86.2598 39.2331L86.265 39.2383Z" fill="#C75E90"/>
<path d="M134.792 30.084C134.176 30.084 133.624 29.984 133.136 29.784C132.648 29.584 132.256 29.288 131.96 28.896C131.672 28.504 131.52 28.032 131.504 27.48H133.688C133.72 27.792 133.828 28.032 134.012 28.2C134.196 28.36 134.436 28.44 134.732 28.44C135.036 28.44 135.276 28.372 135.452 28.236C135.628 28.092 135.716 27.896 135.716 27.648C135.716 27.44 135.644 27.268 135.5 27.132C135.364 26.996 135.192 26.884 134.984 26.796C134.784 26.708 134.496 26.608 134.12 26.496C133.576 26.328 133.132 26.16 132.788 25.992C132.444 25.824 132.148 25.576 131.9 25.248C131.652 24.92 131.528 24.492 131.528 23.964C131.528 23.18 131.812 22.568 132.38 22.128C132.948 21.68 133.688 21.456 134.6 21.456C135.528 21.456 136.276 21.68 136.844 22.128C137.412 22.568 137.716 23.184 137.756 23.976H135.536C135.52 23.704 135.42 23.492 135.236 23.34C135.052 23.18 134.816 23.1 134.528 23.1C134.28 23.1 134.08 23.168 133.928 23.304C133.776 23.432 133.7 23.62 133.7 23.868C133.7 24.14 133.828 24.352 134.084 24.504C134.34 24.656 134.74 24.82 135.284 24.996C135.828 25.18 136.268 25.356 136.604 25.524C136.948 25.692 137.244 25.936 137.492 26.256C137.74 26.576 137.864 26.988 137.864 27.492C137.864 27.972 137.74 28.408 137.492 28.8C137.252 29.192 136.9 29.504 136.436 29.736C135.972 29.968 135.424 30.084 134.792 30.084ZM149.507 21.576V23.22H147.275V30H145.223V23.22H142.991V21.576H149.507ZM160.101 28.512H156.957L156.453 30H154.305L157.353 21.576H159.729L162.777 30H160.605L160.101 28.512ZM159.573 26.928L158.529 23.844L157.497 26.928H159.573ZM175.248 21.576L172.332 27.216V30H170.28V27.216L167.364 21.576H169.692L171.324 25.104L172.944 21.576H175.248ZM189.31 21.576V30H187.258V21.576H189.31ZM202.653 30H200.601L197.169 24.804V30H195.117V21.576H197.169L200.601 26.796V21.576H202.653V30ZM221.384 21.576V23.22H219.152V30H217.1V23.22H214.868V21.576H221.384ZM230.717 30.084C229.925 30.084 229.197 29.9 228.533 29.532C227.877 29.164 227.353 28.652 226.961 27.996C226.577 27.332 226.385 26.588 226.385 25.764C226.385 24.94 226.577 24.2 226.961 23.544C227.353 22.888 227.877 22.376 228.533 22.008C229.197 21.64 229.925 21.456 230.717 21.456C231.509 21.456 232.233 21.64 232.889 22.008C233.553 22.376 234.073 22.888 234.449 23.544C234.833 24.2 235.025 24.94 235.025 25.764C235.025 26.588 234.833 27.332 234.449 27.996C234.065 28.652 233.545 29.164 232.889 29.532C232.233 29.9 231.509 30.084 230.717 30.084ZM230.717 28.212C231.389 28.212 231.925 27.988 232.325 27.54C232.733 27.092 232.937 26.5 232.937 25.764C232.937 25.02 232.733 24.428 232.325 23.988C231.925 23.54 231.389 23.316 230.717 23.316C230.037 23.316 229.493 23.536 229.085 23.976C228.685 24.416 228.485 25.012 228.485 25.764C228.485 26.508 228.685 27.104 229.085 27.552C229.493 27.992 230.037 28.212 230.717 28.212ZM242.503 21.576V26.616C242.503 27.12 242.627 27.508 242.875 27.78C243.123 28.052 243.487 28.188 243.967 28.188C244.447 28.188 244.815 28.052 245.071 27.78C245.327 27.508 245.455 27.12 245.455 26.616V21.576H247.507V26.604C247.507 27.356 247.347 27.992 247.027 28.512C246.707 29.032 246.275 29.424 245.731 29.688C245.195 29.952 244.595 30.084 243.931 30.084C243.267 30.084 242.671 29.956 242.143 29.7C241.623 29.436 241.211 29.044 240.907 28.524C240.603 27.996 240.451 27.356 240.451 26.604V21.576H242.503ZM252.92 25.776C252.92 24.944 253.1 24.204 253.46 23.556C253.82 22.9 254.32 22.392 254.96 22.032C255.608 21.664 256.34 21.48 257.156 21.48C258.156 21.48 259.012 21.744 259.724 22.272C260.436 22.8 260.912 23.52 261.152 24.432H258.896C258.728 24.08 258.488 23.812 258.176 23.628C257.872 23.444 257.524 23.352 257.132 23.352C256.5 23.352 255.988 23.572 255.596 24.012C255.204 24.452 255.008 25.04 255.008 25.776C255.008 26.512 255.204 27.1 255.596 27.54C255.988 27.98 256.5 28.2 257.132 28.2C257.524 28.2 257.872 28.108 258.176 27.924C258.488 27.74 258.728 27.472 258.896 27.12H261.152C260.912 28.032 260.436 28.752 259.724 29.28C259.012 29.8 258.156 30.06 257.156 30.06C256.34 30.06 255.608 29.88 254.96 29.52C254.32 29.152 253.82 28.644 253.46 27.996C253.1 27.348 252.92 26.608 252.92 25.776ZM274.025 21.576V30H271.973V26.532H268.781V30H266.729V21.576H268.781V24.876H271.973V21.576H274.025Z" fill="#696969"/>
<path d="M158.6 84H151.76L140.32 66.68V84H133.48V55.92H140.32L151.76 73.32V55.92H158.6V84ZM184.598 72.48C184.598 73.12 184.558 73.7867 184.478 74.48H168.998C169.105 75.8667 169.545 76.9333 170.318 77.68C171.118 78.4 172.091 78.76 173.238 78.76C174.945 78.76 176.131 78.04 176.798 76.6H184.078C183.705 78.0667 183.025 79.3867 182.038 80.56C181.078 81.7333 179.865 82.6533 178.398 83.32C176.931 83.9867 175.291 84.32 173.478 84.32C171.291 84.32 169.345 83.8533 167.638 82.92C165.931 81.9867 164.598 80.6533 163.638 78.92C162.678 77.1867 162.198 75.16 162.198 72.84C162.198 70.52 162.665 68.4933 163.598 66.76C164.558 65.0267 165.891 63.6933 167.598 62.76C169.305 61.8267 171.265 61.36 173.478 61.36C175.638 61.36 177.558 61.8133 179.238 62.72C180.918 63.6267 182.225 64.92 183.158 66.6C184.118 68.28 184.598 70.24 184.598 72.48ZM177.598 70.68C177.598 69.5067 177.198 68.5733 176.398 67.88C175.598 67.1867 174.598 66.84 173.398 66.84C172.251 66.84 171.278 67.1733 170.478 67.84C169.705 68.5067 169.225 69.4533 169.038 70.68H177.598ZM220.247 61.68L214.207 84H206.647L203.127 69.52L199.487 84H191.967L185.887 61.68H192.727L195.887 77.64L199.647 61.68H206.887L210.687 77.56L213.807 61.68H220.247ZM231.935 84.32C229.988 84.32 228.255 83.9867 226.735 83.32C225.215 82.6533 224.015 81.7467 223.135 80.6C222.255 79.4267 221.762 78.12 221.655 76.68H228.415C228.495 77.4533 228.855 78.08 229.495 78.56C230.135 79.04 230.922 79.28 231.855 79.28C232.708 79.28 233.362 79.12 233.815 78.8C234.295 78.4533 234.535 78.0133 234.535 77.48C234.535 76.84 234.202 76.3733 233.535 76.08C232.868 75.76 231.788 75.4133 230.295 75.04C228.695 74.6667 227.362 74.28 226.295 73.88C225.228 73.4533 224.308 72.8 223.535 71.92C222.762 71.0133 222.375 69.8 222.375 68.28C222.375 67 222.722 65.84 223.415 64.8C224.135 63.7333 225.175 62.8933 226.535 62.28C227.922 61.6667 229.562 61.36 231.455 61.36C234.255 61.36 236.455 62.0533 238.055 63.44C239.682 64.8267 240.615 66.6667 240.855 68.96H234.535C234.428 68.1867 234.082 67.5733 233.495 67.12C232.935 66.6667 232.188 66.44 231.255 66.44C230.455 66.44 229.842 66.6 229.415 66.92C228.988 67.2133 228.775 67.6267 228.775 68.16C228.775 68.8 229.108 69.28 229.775 69.6C230.468 69.92 231.535 70.24 232.975 70.56C234.628 70.9867 235.975 71.4133 237.015 71.84C238.055 72.24 238.962 72.9067 239.735 73.84C240.535 74.7467 240.948 75.9733 240.975 77.52C240.975 78.8267 240.602 80 239.855 81.04C239.135 82.0533 238.082 82.8533 236.695 83.44C235.335 84.0267 233.748 84.32 231.935 84.32ZM252 54.4V84H245.16V54.4H252ZM277.997 72.48C277.997 73.12 277.957 73.7867 277.877 74.48H262.397C262.503 75.8667 262.943 76.9333 263.717 77.68C264.517 78.4 265.49 78.76 266.637 78.76C268.343 78.76 269.53 78.04 270.197 76.6H277.477C277.103 78.0667 276.423 79.3867 275.437 80.56C274.477 81.7333 273.263 82.6533 271.797 83.32C270.33 83.9867 268.69 84.32 266.877 84.32C264.69 84.32 262.743 83.8533 261.037 82.92C259.33 81.9867 257.997 80.6533 257.037 78.92C256.077 77.1867 255.597 75.16 255.597 72.84C255.597 70.52 256.063 68.4933 256.997 66.76C257.957 65.0267 259.29 63.6933 260.997 62.76C262.703 61.8267 264.663 61.36 266.877 61.36C269.037 61.36 270.957 61.8133 272.637 62.72C274.317 63.6267 275.623 64.92 276.557 66.6C277.517 68.28 277.997 70.24 277.997 72.48ZM270.997 70.68C270.997 69.5067 270.597 68.5733 269.797 67.88C268.997 67.1867 267.997 66.84 266.797 66.84C265.65 66.84 264.677 67.1733 263.877 67.84C263.103 68.5067 262.623 69.4533 262.437 70.68H270.997ZM294.045 78.2V84H290.565C288.085 84 286.152 83.4 284.765 82.2C283.378 80.9733 282.685 78.9867 282.685 76.24V67.36H279.965V61.68H282.685V56.24H289.525V61.68H294.005V67.36H289.525V76.32C289.525 76.9867 289.685 77.4667 290.005 77.76C290.325 78.0533 290.858 78.2 291.605 78.2H294.045ZM310.295 78.2V84H306.815C304.335 84 302.402 83.4 301.015 82.2C299.628 80.9733 298.935 78.9867 298.935 76.24V67.36H296.215V61.68H298.935V56.24H305.775V61.68H310.255V67.36H305.775V76.32C305.775 76.9867 305.935 77.4667 306.255 77.76C306.575 78.0533 307.108 78.2 307.855 78.2H310.295ZM335.145 72.48C335.145 73.12 335.105 73.7867 335.025 74.48H319.545C319.652 75.8667 320.092 76.9333 320.865 77.68C321.665 78.4 322.638 78.76 323.785 78.76C325.492 78.76 326.678 78.04 327.345 76.6H334.625C334.252 78.0667 333.572 79.3867 332.585 80.56C331.625 81.7333 330.412 82.6533 328.945 83.32C327.478 83.9867 325.838 84.32 324.025 84.32C321.838 84.32 319.892 83.8533 318.185 82.92C316.478 81.9867 315.145 80.6533 314.185 78.92C313.225 77.1867 312.745 75.16 312.745 72.84C312.745 70.52 313.212 68.4933 314.145 66.76C315.105 65.0267 316.438 63.6933 318.145 62.76C319.852 61.8267 321.812 61.36 324.025 61.36C326.185 61.36 328.105 61.8133 329.785 62.72C331.465 63.6267 332.772 64.92 333.705 66.6C334.665 68.28 335.145 70.24 335.145 72.48ZM328.145 70.68C328.145 69.5067 327.745 68.5733 326.945 67.88C326.145 67.1867 325.145 66.84 323.945 66.84C322.798 66.84 321.825 67.1733 321.025 67.84C320.252 68.5067 319.772 69.4533 319.585 70.68H328.145ZM345.593 65.4C346.393 64.1733 347.393 63.2133 348.593 62.52C349.793 61.8 351.127 61.44 352.593 61.44V68.68H350.713C349.007 68.68 347.727 69.0533 346.873 69.8C346.02 70.52 345.593 71.8 345.593 73.64V84H338.753V61.68H345.593V65.4Z" fill="white"/>
</svg>
